<svg version="1.1" viewBox="0.0 0.0 280.46194225721786 280.50918635170603" fill="none" stroke="none" stroke-linecap="square" stroke-miterlimit="10" xmlns:xlink="http://www.w3.org/1999/xlink" xmlns="http://www.w3.org/2000/svg"><clipPath id="p.0"><path d="m0 0l280.46194 0l0 280.5092l-280.46194 0l0 -280.5092z" clip-rule="nonzero"/></clipPath><g clip-path="url(#p.0)"><path fill="#000000" fill-opacity="0.0" d="m0 0l280.46194 0l0 280.5092l-280.46194 0z" fill-rule="evenodd"/><path fill="#000000" fill-opacity="0.0" d="m280.23096 4.930593l0 0c0 -2.5824833 -2.0935059 -4.6759996 -4.675995 -4.6759996l-270.64798 0c-1.2401521 0 -2.429511 0.49264857 -3.3064313 1.3695687c-0.8769201 0.8769201 -1.3695687 2.066279 -1.3695687 3.3064313l0 270.64798c0 2.582489 2.0935166 4.6760254 4.6759996 4.6760254l270.64798 0l0 0c2.582489 0 4.675995 -2.0935364 4.675995 -4.6760254z" fill-rule="evenodd"/><path fill="#999999" d="m70.69257 233.6274l0 0c3.1241608 -3.1241608 3.1241608 -8.189438 0 -11.313599l-16.970402 -16.970398l0 0c-1.5002785 -1.5002899 -3.5350876 -2.3431244 -5.6567993 -2.3431244c-2.1217117 0 -4.1565247 0.8428345 -5.656803 2.3431244l0 0l0 0c-3.1241646 3.1241608 -3.1241646 8.189423 0 11.313599l16.970402 16.970398c3.1241646 3.1241608 8.189434 3.1241608 11.313602 0z" fill-rule="evenodd"/><path fill="#999999" d="m42.40857 250.5978l0 0c3.1241646 3.1241608 8.189438 3.1241608 11.313602 0l16.970402 -16.970398l0 0c1.5002747 -1.5002747 2.3431244 -3.5350952 2.3431244 -5.6567993c0 -2.1217194 -0.84284973 -4.1565247 -2.3431244 -5.6567993l0 0l0 0c-3.1241684 -3.1241608 -8.189438 -3.1241608 -11.313602 0l-16.970402 16.970398c-3.1241646 3.1241608 -3.1241646 8.189438 0 11.313599z" fill-rule="evenodd"/><path fill="#999999" d="m65.035774 205.3434l0 0c3.1241608 -3.124176 3.1241608 -8.189438 0 -11.313599l-16.970402 -16.970413l0 0c-1.5002785 -1.5002747 -3.5350914 -2.3431244 -5.656803 -2.3431244c-2.1217117 0 -4.156521 0.84284973 -5.6567993 2.3431244l0 0l0 0c-3.1241646 3.124176 -3.1241646 8.189438 0 11.313599l16.970402 16.970413c3.1241646 3.1241608 8.189434 3.1241608 11.313602 0z" fill-rule="evenodd"/><path fill="#999999" d="m19.78137 205.3434l0 0c3.1241646 3.1241608 8.189436 3.1241608 11.313601 0l16.970402 -16.970413l0 0c1.5002747 -1.5002747 2.3431206 -3.53508 2.3431206 -5.6567993c0 -2.121704 -0.8428459 -4.1565094 -2.3431206 -5.6567993l0 0l0 0c-3.1241646 -3.1241608 -8.189438 -3.1241608 -11.313602 0l-16.9704 16.970413c-3.1241627 3.1241608 -3.1241627 8.189423 0 11.313599z" fill-rule="evenodd"/><path fill="#999999" d="m42.40857 216.657l0 0c3.1241646 3.1241608 8.189438 3.1241608 11.313602 0l28.284 -28.284012c1.5002747 -1.5002747 2.3431244 -3.53508 2.3431244 -5.6567993c0 -2.121704 -0.84284973 -4.1565094 -2.3431244 -5.6567993l0 0l0 0c-3.1241684 -3.1241608 -8.189438 -3.1241608 -11.313599 0l-28.284004 28.284012c-3.1241646 3.1241608 -3.1241646 8.189423 0 11.313599z" fill-rule="evenodd"/><path fill="#00ffea" d="m45.236973 242.1126l0 0c1.5620804 1.562088 4.094715 1.562088 5.6567993 0l11.313599 -11.313599l0 0c0.7501373 -0.7501373 1.1715622 -1.7675476 1.1715622 -2.8283997c0 -1.060852 -0.42142487 -2.0782623 -1.1715622 -2.8283997l0 0l0 0c-1.5620804 -1.562088 -4.094719 -1.562088 -5.6567993 0l-11.313599 11.313599c-1.5620842 1.5620728 -1.5620842 4.0947113 0 5.6567993z" fill-rule="evenodd"/><path fill="#00ffea" d="m45.236973 208.1718l0 0c1.5620804 1.5620728 4.094715 1.5620728 5.6567993 0l22.627201 -22.627213c0.7501373 -0.7501373 1.1715622 -1.7675323 1.1715622 -2.8283997c0 -1.060852 -0.42142487 -2.0782623 -1.1715622 -2.8283997l0 0l0 0c-1.562088 -1.5620728 -4.094719 -1.5620728 -5.6567993 0l-22.627201 22.627213c-1.5620842 1.5620728 -1.5620842 4.0947113 0 5.6567993z" fill-rule="evenodd"/><path fill="#00ffea" d="m22.609772 196.8582l0 0c1.5620823 1.5620728 4.094717 1.5620728 5.6567993 0l11.313599 -11.313614l0 0c0.75014114 -0.7501373 1.1715622 -1.7675323 1.1715622 -2.8283997c0 -1.060852 -0.42142105 -2.0782623 -1.1715622 -2.8283997l0 0l0 0c-1.5620804 -1.5620728 -4.094715 -1.5620728 -5.6567993 0l-11.313599 11.313599c-1.5620823 1.562088 -1.5620823 4.0947266 0 5.6568146z" fill-rule="evenodd"/><path fill="#999999" d="m209.76938 46.881794l0 0c-3.124176 3.1241646 -3.124176 8.189434 0 11.313599l16.970398 16.970402l0 0c1.5002747 1.5002747 3.53508 2.3431244 5.6567993 2.3431244c2.121704 0 4.1565247 -0.84284973 5.6567993 -2.3431244l0 0l0 0c3.1241608 -3.1241684 3.1241608 -8.189438 0 -11.313602l-16.970398 -16.970398c-3.124176 -3.1241646 -8.189438 -3.1241646 -11.313599 0z" fill-rule="evenodd"/><path fill="#999999" d="m238.05338 29.911394l0 0c-3.1241608 -3.1241646 -8.189438 -3.1241646 -11.313599 0l-16.970398 16.9704l0 0c-1.5002899 1.5002747 -2.3431244 3.5350876 -2.3431244 5.6567993c0 2.1217117 0.8428345 4.1565247 2.3431244 5.6567993l0 0l0 0c3.1241608 3.1241646 8.189423 3.1241646 11.313599 0l16.970398 -16.970398c3.1241608 -3.1241646 3.1241608 -8.189438 0 -11.313601z" fill-rule="evenodd"/><path fill="#999999" d="m215.42618 75.165794l0 0c-3.124176 3.1241608 -3.124176 8.189438 0 11.313599l16.970398 16.970398l0 0c1.5002747 1.5002823 3.53508 2.3431244 5.6567993 2.3431244c2.121704 0 4.1565247 -0.8428421 5.6567993 -2.3431244l0 0l0 0c3.1241608 -3.1241608 3.1241608 -8.18943 0 -11.313599l-16.970398 -16.970398c-3.124176 -3.1241684 -8.189438 -3.1241684 -11.313599 0z" fill-rule="evenodd"/><path fill="#999999" d="m260.68057 75.165794l0 0c-3.124176 -3.1241684 -8.189438 -3.1241684 -11.313599 0l-16.970398 16.970398l0 0c-1.5002747 1.5002747 -2.3431244 3.5350876 -2.3431244 5.6567993c0 2.1217117 0.84284973 4.1565247 2.3431244 5.6567993l0 0l0 0c3.1241608 3.1241684 8.189438 3.1241684 11.313599 0l16.970398 -16.970398c3.124176 -3.1241608 3.124176 -8.189438 0 -11.313599z" fill-rule="evenodd"/><path fill="#999999" d="m238.05338 63.852192l0 0c-3.1241608 -3.1241646 -8.189438 -3.1241646 -11.313599 0l-28.284012 28.284c-1.5002747 1.5002747 -2.3431244 3.5350876 -2.3431244 5.6567993c0 2.1217117 0.84284973 4.1565247 2.3431244 5.6567993l0 0l0 0c3.124176 3.1241684 8.189438 3.1241684 11.313614 0l28.283997 -28.283997c3.1241608 -3.1241684 3.1241608 -8.189438 0 -11.313602z" fill-rule="evenodd"/><path fill="#00ffea" d="m235.22498 38.396595l0 0c-1.562088 -1.5620842 -4.0947266 -1.5620842 -5.6567993 0l-11.313599 11.313599l0 0c-0.7501373 0.7501373 -1.1715698 1.7675438 -1.1715698 2.8283997c0 1.0608559 0.4214325 2.0782623 1.1715698 2.8283997l0 0l0 0c1.5620728 1.5620842 4.0947113 1.5620842 5.6567993 0l11.313599 -11.313599c1.5620728 -1.5620842 1.5620728 -4.094719 0 -5.6567993z" fill-rule="evenodd"/><path fill="#00ffea" d="m235.22498 72.337395l0 0c-1.562088 -1.5620804 -4.0947266 -1.5620804 -5.6567993 0l-22.627213 22.627197c-0.7501373 0.7501373 -1.1715546 1.7675476 -1.1715546 2.8283997c0 1.0608597 0.42141724 2.0782623 1.1715546 2.8283997l0 0l0 0c1.562088 1.5620804 4.0947266 1.5620804 5.6568146 0l22.627197 -22.627197c1.5620728 -1.5620804 1.5620728 -4.094719 0 -5.6567993z" fill-rule="evenodd"/><path fill="#00ffea" d="m257.85217 83.65099l0 0c-1.5620728 -1.5620804 -4.0947266 -1.5620804 -5.6567993 0l-11.313599 11.313599l0 0c-0.7501373 0.7501373 -1.1715698 1.7675476 -1.1715698 2.8283997c0 1.0608597 0.4214325 2.0782623 1.1715698 2.8283997l0 0l0 0c1.5620728 1.5620804 4.0947113 1.5620804 5.6567993 0l11.313599 -11.313599c1.5620728 -1.5620804 1.5620728 -4.094719 0 -5.6567993z" fill-rule="evenodd"/><path fill="#999999" d="m145.88913 117.62403l0 0c12.496658 -12.496658 32.757736 -12.496658 45.254395 0l0 0c6.001114 6.0011063 9.372498 14.140358 9.372498 22.627205c0 8.486847 -3.3713837 16.626083 -9.372498 22.627197l0 0c-12.496658 12.496658 -32.757736 12.496658 -45.254395 0l0 0c-12.496658 -12.496658 -12.496658 -32.75775 0 -45.254402z" fill-rule="evenodd"/><path fill="#00ffea" d="m143.06073 120.45243l0 0c10.93457 -10.934578 28.663025 -10.934578 39.597595 0l0 0c5.2509766 5.250969 8.200928 12.37281 8.200928 19.798805c0 7.4259796 -2.9499512 14.547821 -8.200928 19.798798l0 0c-10.93457 10.93457 -28.663025 10.93457 -39.597595 0l0 0c-10.934586 -10.934586 -10.934586 -28.663025 0 -39.597603z" fill-rule="evenodd"/><path fill="#999999" d="m120.433525 86.51163l0 0c10.934578 -10.93457 28.663033 -10.93457 39.597603 0l0 0c5.2509613 5.250969 8.200928 12.37281 8.200928 19.798805c0 7.4259872 -2.9499664 14.547829 -8.200928 19.798798l0 0c-10.93457 10.934578 -28.663025 10.934578 -39.597603 0l0 0c-10.93457 -10.934578 -10.93457 -28.663025 0 -39.597603z" fill-rule="evenodd"/><path fill="#00ffea" d="m123.261925 94.996826l0 0c9.37249 -9.37249 24.568306 -9.37249 33.940804 0l0 0c4.500824 4.5008316 7.029373 10.60527 7.029373 16.970406c0 6.365135 -2.5285492 12.469566 -7.029373 16.97039l0 0c-9.372498 9.372498 -24.568314 9.372498 -33.940804 0l0 0c-9.37249 -9.372482 -9.37249 -24.568298 0 -33.940796z" fill-rule="evenodd"/><path fill="#999999" d="m89.32113 117.62403l0 0c12.496658 -12.496658 32.757744 -12.496658 45.254402 0l0 0c6.0010986 6.0011063 9.372482 14.140358 9.372482 22.627205c0 8.486847 -3.3713837 16.626083 -9.372482 22.627197l0 0c-12.496658 12.496658 -32.757744 12.496658 -45.254402 0l0 0c-12.496658 -12.496658 -12.496658 -32.75775 0 -45.254402z" fill-rule="evenodd"/><path fill="#00ffea" d="m97.80633 120.45243l0 0c10.934578 -10.934578 28.663025 -10.934578 39.597603 0l0 0c5.2509613 5.250969 8.200928 12.37281 8.200928 19.798805c0 7.4259796 -2.9499664 14.547821 -8.200928 19.798798l0 0c-10.934578 10.93457 -28.663025 10.93457 -39.597603 0l0 0c-10.934578 -10.934586 -10.934578 -28.663025 0 -39.597603z" fill-rule="evenodd"/><path fill="#999999" d="m120.433525 154.39323l0 0c10.934578 -10.934586 28.663033 -10.934586 39.597603 0l0 0c5.2509613 5.2509613 8.200928 12.372803 8.200928 19.798798c0 7.425995 -2.9499664 14.547836 -8.200928 19.798798l0 0c-10.93457 10.93457 -28.663025 10.93457 -39.597603 0l0 0c-10.93457 -10.93457 -10.93457 -28.663025 0 -39.597595z" fill-rule="evenodd"/><path fill="#00ffea" d="m123.261925 151.56483l0 0c9.37249 -9.372498 24.568306 -9.372498 33.940804 0l0 0c4.500824 4.500824 7.029373 10.605255 7.029373 16.970398c0 6.3651276 -2.5285492 12.469574 -7.029373 16.970398l0 0c-9.372498 9.372498 -24.568314 9.372498 -33.940804 0l0 0c-9.37249 -9.372498 -9.37249 -24.568314 0 -33.940796z" fill-rule="evenodd"/><path fill="#999999" d="m54.85817 21.911392l0 0c3.1241646 -3.1241627 8.189438 -3.1241627 11.313599 0l11.313606 11.313602l0 0c1.5002747 1.5002747 2.3431168 3.5350876 2.3431168 5.6567993c0 2.1217117 -0.8428421 4.156521 -2.3431168 5.6567993l0 0l0 0c-3.1241684 3.1241646 -8.189438 3.1241646 -11.313606 0l-11.313599 -11.313599l0 0c-3.1241646 -3.1241665 -3.1241646 -8.189438 0 -11.313602z" fill-rule="evenodd"/><path fill="#999999" d="m94.45577 61.50899l0 0c3.1241608 -3.1241608 3.1241608 -8.189434 0 -11.313599l0 0l0 0c-1.5002747 -1.5002747 -3.5350876 -2.3431244 -5.6567993 -2.3431244c-2.1217117 0 -4.1565247 0.84284973 -5.6567993 2.3431244l0 0l0 0c-3.1241684 3.1241646 -3.1241684 8.189438 0 11.313599l0 0l0 0c3.1241608 3.1241646 8.18943 3.1241646 11.313599 0z" fill-rule="evenodd"/><path fill="#999999" d="m54.85817 55.852192l0 0c3.1241646 -3.1241646 8.189438 -3.1241646 11.313599 0l11.313606 11.313602l0 0c1.5002747 1.5002747 2.3431168 3.5350876 2.3431168 5.6567993c0 2.1217117 -0.8428421 4.1565247 -2.3431168 5.6567993l0 0l0 0c-3.1241684 3.1241608 -8.189438 3.1241608 -11.313606 0l-11.313599 -11.313599l0 0c-3.1241646 -3.1241684 -3.1241646 -8.189438 0 -11.313602z" fill-rule="evenodd"/><path fill="#999999" d="m94.45577 95.44979l0 0c3.1241608 -3.1241608 3.1241608 -8.18943 0 -11.313599l0 0l0 0c-1.5002747 -1.5002747 -3.5350876 -2.3431244 -5.6567993 -2.3431244c-2.1217117 0 -4.1565247 0.84284973 -5.6567993 2.3431244l0 0l0 0c-3.1241684 3.1241684 -3.1241684 8.189438 0 11.313599l0 0l0 0c3.1241608 3.1241684 8.18943 3.1241684 11.313599 0z" fill-rule="evenodd"/><path fill="#00ffea" d="m111.42617 78.47939l0 0c3.1241684 -3.1241608 3.1241684 -8.189438 0 -11.313599l0 0l0 0c-1.5002747 -1.5002747 -3.5350876 -2.3431244 -5.6567993 -2.3431244c-2.1217117 0 -4.1565247 0.84284973 -5.6567993 2.3431244l0 0l0 0c-3.1241684 3.1241608 -3.1241684 8.189438 0 11.313599l0 0l0 0c3.1241608 3.1241608 8.189438 3.1241608 11.313599 0z" fill-rule="evenodd"/><path fill="#00ffea" d="m49.20137 50.195393l0 0c3.1241646 -3.1241646 3.1241646 -8.189434 0 -11.313599l0 0l0 0c-1.5002747 -1.5002785 -3.5350876 -2.3431244 -5.6567993 -2.3431244c-2.1217117 0 -4.1565247 0.8428459 -5.6567993 2.3431244l0 0l0 0c-3.1241646 3.1241646 -3.1241646 8.189434 0 11.313599l0 0l0 0c3.1241646 3.1241646 8.189434 3.1241646 11.313599 0z" fill-rule="evenodd"/><path fill="#00ffea" d="m57.686573 30.396593l0 0c1.5620804 -1.5620823 4.094715 -1.5620823 5.6567993 0l5.6567955 5.656801l0 0c0.75014496 0.7501373 1.1715622 1.7675438 1.1715622 2.8283997c0 1.0608559 -0.42141724 2.0782623 -1.1715622 2.8283997l0 0l0 0c-1.5620804 1.5620804 -4.0947113 1.5620804 -5.6567955 0l-5.6567993 -5.6567993l0 0c-1.5620842 -1.5620842 -1.5620842 -4.094719 0 -5.656801z" fill-rule="evenodd"/><path fill="#00ffea" d="m57.686573 64.337395l0 0c1.5620804 -1.5620842 4.094715 -1.5620842 5.6567993 0l5.6567955 5.6567993l0 0c0.75014496 0.7501373 1.1715622 1.76754 1.1715622 2.8283997c0 1.060852 -0.42141724 2.0782623 -1.1715622 2.8283997l0 0l0 0c-1.5620804 1.5620804 -4.0947113 1.5620804 -5.6567955 0l-5.6567993 -5.6567993l0 0c-1.5620842 -1.5620804 -1.5620842 -4.094719 0 -5.6567993z" fill-rule="evenodd"/><path fill="#999999" d="m225.60378 258.59778l0 0c-3.1241608 3.124176 -8.189438 3.124176 -11.313599 0l-11.313599 -11.313583l0 0c-1.5002899 -1.5002747 -2.3431244 -3.5350952 -2.3431244 -5.6567993c0 -2.1217194 0.8428345 -4.1565247 2.3431244 -5.6567993l0 0l0 0c3.1241608 -3.1241608 8.189423 -3.1241608 11.313599 0l11.313599 11.313599l0 0c3.1241608 3.1241608 3.1241608 8.189438 0 11.313583z" fill-rule="evenodd"/><path fill="#999999" d="m186.00616 219.0002l0 0c-3.1241608 3.1241608 -3.1241608 8.189438 0 11.313599l0 0l0 0c1.5002899 1.5002747 3.5350952 2.3431244 5.6567993 2.3431244c2.1217194 0 4.1565247 -0.84284973 5.6568146 -2.3431244l0 0l0 0c3.1241608 -3.1241608 3.1241608 -8.189438 0 -11.313599l0 0l0 0c-3.124176 -3.124176 -8.189438 -3.124176 -11.313614 0z" fill-rule="evenodd"/><path fill="#999999" d="m225.60378 224.657l0 0c-3.1241608 3.1241608 -8.189438 3.1241608 -11.313599 0l-11.313599 -11.313599l0 0c-1.5002899 -1.5002899 -2.3431244 -3.5350952 -2.3431244 -5.6567993c0 -2.1217194 0.8428345 -4.1565247 2.3431244 -5.6567993l0 0l0 0c3.1241608 -3.124176 8.189423 -3.124176 11.313599 0l11.313599 11.313599l0 0c3.1241608 3.1241608 3.1241608 8.189423 0 11.313599z" fill-rule="evenodd"/><path fill="#999999" d="m186.00616 185.05939l0 0c-3.1241608 3.124176 -3.1241608 8.189438 0 11.313599l0 0l0 0c1.5002899 1.5002899 3.5350952 2.3431244 5.6567993 2.3431244c2.1217194 0 4.1565247 -0.8428345 5.6568146 -2.3431244l0 0l0 0c3.1241608 -3.1241608 3.1241608 -8.189423 0 -11.313599l0 0l0 0c-3.124176 -3.1241608 -8.189438 -3.1241608 -11.313614 0z" fill-rule="evenodd"/><path fill="#00ffea" d="m169.03577 202.0298l0 0c-3.1241608 3.1241608 -3.1241608 8.189423 0 11.313599l0 0l0 0c1.5002747 1.5002747 3.5350952 2.3431244 5.6567993 2.3431244c2.1217194 0 4.1565247 -0.84284973 5.6567993 -2.3431244l0 0l0 0c3.124176 -3.124176 3.124176 -8.189438 0 -11.313599l0 0l0 0c-3.1241608 -3.124176 -8.189423 -3.124176 -11.313599 0z" fill-rule="evenodd"/><path fill="#00ffea" d="m231.26057 230.3138l0 0c-3.1241608 3.1241608 -3.1241608 8.189438 0 11.313599l0 0l0 0c1.5002747 1.5002747 3.53508 2.3431244 5.6567993 2.3431244c2.121704 0 4.1565247 -0.84284973 5.6567993 -2.3431244l0 0l0 0c3.1241608 -3.1241608 3.1241608 -8.189438 0 -11.313599l0 0l0 0c-3.1241608 -3.1241608 -8.189438 -3.1241608 -11.313599 0z" fill-rule="evenodd"/><path fill="#00ffea" d="m222.77538 250.1126l0 0c-1.562088 1.562088 -4.0947266 1.562088 -5.6567993 0l-5.6567993 -5.6567993l0 0c-0.7501373 -0.7501373 -1.1715698 -1.7675476 -1.1715698 -2.8283997c0 -1.060852 0.4214325 -2.0782623 1.1715698 -2.8283997l0 0l0 0c1.5620728 -1.562088 4.0947113 -1.562088 5.6567993 0l5.6567993 5.6567993l0 0c1.5620728 1.5620728 1.5620728 4.0947113 0 5.6567993z" fill-rule="evenodd"/><path fill="#00ffea" d="m222.77538 216.1718l0 0c-1.562088 1.5620728 -4.0947266 1.5620728 -5.6567993 0l-5.6567993 -5.6567993l0 0c-0.7501373 -0.7501373 -1.1715698 -1.7675476 -1.1715698 -2.8283997c0 -1.0608673 0.4214325 -2.0782623 1.1715698 -2.8283997l0 0l0 0c1.5620728 -1.562088 4.0947113 -1.562088 5.6567993 0l5.6567993 5.6567993l0 0c1.5620728 1.5620728 1.5620728 4.0947113 0 5.6567993z" fill-rule="evenodd"/></g></svg>